<?xml version="1.0" encoding="UTF-8" standalone="no"?>
<!-- Generated by SVGMaker - https://svgmaker.io -->
<!-- Prompt: image has been manually edited -->
<!-- Quality: medium -->
<!-- Type: crafted -->
<!-- Created: 2026-04-23T22:02:23.306Z -->
<svg xmlns="http://www.w3.org/2000/svg" xmlns:xlink="http://www.w3.org/1999/xlink" version="1.1" width="1536" height="1024" viewBox="0 0 2048 1365">
<desc>Created with SVGMaker Editor 3.0.0</desc>
<defs>
</defs>
<path transform="translate(0,0)" style="fill: rgb(212,212,212)" stroke-linecap="round" d="M445.904 322.2058C450.783 322.0698 456.734 322.6899 459.795 327.04 465.049 334.5078 469.805 342.3277 474.639 350.0755 485.995 368.4299 497.163 386.9014 508.141 405.4848 522.261 429.1255 536.916 452.5031 550.258 476.5759 557.894 490.3512 536.243 503.7664 528.31 491.1364 521.345 480.0467 514.435 468.59 507.601 457.3813L451.664 364.2379C417.244 426.2108 386.407 491.2214 352.52 553.6264 339.869 576.9239 326.009 619.8242 298.819 577.336 294.665 570.8455 290.518 564.51 286.051 558.2625 236.345 655.6218 183.999 752.33 135.7088 850.3726 165.8054 848.7572 202.378 849.2833 233.056 848.8662L439.997 846.9917 501.917 846.7217C514.148 846.7457 526.636 847.3998 538.835 846.6357 544.684 846.2696 550.571 845.2963 555.883 842.7117 563.03 839.2339 568.218 833.2935 570.75 825.7657 573.492 817.6147 573.206 808.1774 569.165 800.5046 565.253 793.0778 558.173 788.2747 550.233 785.9541 539.46 782.8053 527.131 783.5345 515.989 783.4955 492.519 783.4115 433.104 786.2282 413.033 779.9837 400.473 776.0757 388.764 768.1558 382.739 756.183 376.477 743.74 375.921 728.1592 380.38 715.0411 385.351 700.4186 397.072 690.3322 411.503 685.473 430.763 678.9874 505.341 682.2322 530.257 682.2942 542.92 682.3252 557.608 683.5015 569.238 677.7101 574.857 674.9125 580.053 670.1503 581.838 663.9728 583.521 658.1474 582.901 649.7604 579.604 644.6032 576.582 639.8751 571.256 637.3925 565.964 636.1872 555.895 633.8936 544.652 634.7628 534.356 634.7888L476.085 634.9629C460.95 635.0059 445.232 635.9171 430.507 633.0864 402.992 627.7952 385.405 599.8434 393 572.7259 407.888 519.5672 479.99 541.6035 521.534 522.3358 527.661 519.5422 533.204 515.6152 537.87 510.7601 556.706 490.9573 569.642 451.5419 588.962 432.2562 599.161 422.0768 618.088 463.3747 621.104 469.1291 636.308 496.7777 651.339 524.5214 666.197 552.3571 671.016 561.3292 691.052 594.8923 689.263 602.085 688.364 605.8369 685.932 609.0397 682.559 610.9131 670.433 617.7727 662.764 603.3093 658.119 594.7532 636.54 555.0017 613.662 515.6152 592.969 475.4116 580.691 493.613 572.165 515.6462 556.552 531.351 516.806 571.3286 444.433 553.5793 424.128 571.3146 420.494 574.4894 418.89 579.4616 418.694 584.1937 418.492 589.0829 419.796 593.2909 423.237 596.8567 427.49 601.2658 433.57 603.5533 439.491 604.5926 451.307 606.6651 464.918 605.4478 476.967 605.4078 501.818 605.3258 526.693 604.9797 551.542 605.2287 568.614 605.3998 585.61 609.7698 597.823 622.4169 606.713 631.6251 610.599 644.0831 610.231 656.7381 609.528 680.9229 594.635 699.9755 571.378 706.6351 558.469 710.332 544.584 709.5208 531.291 709.4828L467.426 709.2787C453.499 709.2377 441.613 708.8936 427.318 710.463 402.561 712.1704 395.358 745.2753 420.429 753.2983 437.523 758.7696 461.907 755.2817 479.871 756.1159 503.052 757.1922 528.55 753.7294 551.298 757.8194 579.108 762.8206 598.974 786.6073 598.991 814.739 599.033 830.5748 592.706 845.7625 581.434 856.8821 568.391 869.5752 554.123 873.6912 536.4 874.4633 519.074 875.2185 501.642 875.0095 484.293 875.1195L389 876.1627 231.861 877.4731C195.897 878.0122 160.4224 879.1795 124.0343 878.8964 83.1276 878.5783 106.3071 848.7312 116.2721 827.9382 124.6784 810.398 134.2346 792.4407 143.0726 774.9965 170.2056 721.2716 197.662 667.7117 225.441 614.3189 240.663 584.8138 255.717 555.1897 271.551 526.0067 273.623 520.8385 280.415 516.8635 286.178 518.618 299.376 522.6369 310.09 546.4496 318.043 557.4953L399.352 400.7427 423.269 354.6576C428.789 344.0601 435.165 327.203 445.904 322.2058Z"></path>
<path transform="translate(0,0)" style="fill: rgb(212,212,212)" stroke-linecap="round" d="M748.391 369.3453C750.555 369.2963 752.72 369.2703 754.884 369.2693 771.467 369.2583 784.313 373.3753 796.273 385.3001 814.967 403.9386 812.462 426.351 812.418 450.5418L812.32 507.1704 812.466 713.1248C834.515 731.4442 848.273 751.684 852.333 780.617 860.903 841.6806 828.671 890.2593 767.26 899.8856 700.33 903.5775 658.024 853.9326 663.039 788.906 665.619 755.4519 678.425 733.9748 702.947 712.0965 704.298 644.9364 702.973 573.0702 702.966 505.567L702.963 450.7318C702.963 411.5334 702.063 380.587 748.391 369.3453ZM726.935 725.7878C719.251 733.7027 707.368 742.0037 701.831 751.0059 669.147 804.1466 694.992 880.669 765.243 874.0934 784.817 871.4338 801.45 863.1538 813.551 847.1659 826.629 829.8848 830.641 807.0883 827.486 785.9182 821.592 746.3718 791.084 733.6527 788.964 723.8083 786.03 710.1781 788.223 666.7486 788.239 650.6418L788.34 470.5826C788.347 453.2814 790.135 428.8706 785.54 412.7607 781.164 397.42 763.772 394.2913 750.589 395.1515 737.573 399.2905 727.887 407.4194 727.356 422.0609 726.29 451.503 727.468 481.1181 727.014 510.5682 725.912 582.0223 728.625 654.4217 726.935 725.7878Z"></path>
<path transform="translate(0,0)" style="fill: rgb(212,212,212)" stroke-linecap="round" d="M751.402 527.0664C751.996 527.0184 752.59 526.9793 753.185 526.9513 763.767 526.4832 766.687 531.1173 766.868 540.9727 767.294 564.0932 767.053 587.2658 767.056 610.3984L767.08 752.3364C771.003 753.7317 775.665 755.2391 779.26 757.2626 790.975 763.8922 799.588 774.8938 803.215 787.8589 812.028 819.5305 794.756 842.5061 764.409 850.2819 754.585 850.8881 747.707 850.539 738.405 846.586 726.645 841.6038 717.449 832.0065 712.973 820.0427 704.287 797.3792 713.004 768.3142 735.062 756.7735 738.21 755.1261 742.41 753.7187 745.757 752.4784L745.56 553.4187C745.495 541.1627 743.539 535.0133 751.402 527.0664Z"></path>
<path transform="translate(0,0)" style="fill: rgb(212,212,212)" stroke-linecap="round" d="M958.988 666.2656C981.875 666.1866 1023.391 663.912 1044.042 668.8822 1080.208 677.5853 1091.87 725.1167 1053.557 745.7377 1081.348 754.4298 1090.271 776.8081 1081.663 803.7426 1069.528 830.8001 1038.817 830.9581 1013.688 830.508 995.575 830.1839 977.18 830.459 959.035 830.409L958.988 666.2656ZM991.807 801.0259C1007.67 801.253 1032.358 803.9076 1044.749 795.4176 1049.212 789.0241 1050.473 784.505 1049.282 776.6291 1045.94 754.5308 1008.67 761.2754 991.863 761.1314L991.807 801.0259ZM991.775 734.2459C1006.529 734.49 1025.187 736.8215 1037.193 728.6316 1048.641 711.4464 1039.451 700.2097 1020.601 699.7486 1011.031 699.5136 1001.459 699.7977 991.894 699.9927L991.775 734.2459Z"></path>
<path transform="translate(0,0)" style="fill: rgb(212,212,212)" stroke-linecap="round" d="M1462 663.635C1472.72 663.5059 1483.43 663.5589 1494.14 663.794L1493.96 830.381 1461.4 830.343 1461.82 815.2503C1445 834.1239 1424.21 836.5174 1400.79 828.5835 1361.04 811.1114 1357.82 747.025 1387.96 719.5574 1409.26 700.1547 1442.03 703.0464 1461.12 724.5856 1460.99 716.5217 1459.38 667.0408 1462 663.635ZM1438.78 800.8809C1474.34 788.808 1466.41 734.0439 1425.25 737.4307 1398.17 746.6299 1394.82 785.0071 1419.69 798.7644 1425.12 801.7681 1432.67 801.321 1438.78 800.8809Z"></path>
<path transform="translate(0,0)" style="fill: rgb(212,212,212)" stroke-linecap="round" d="M1320.5 666.6347C1330.43 665.7395 1342.7 667.3089 1352 666.3326 1353.87 718.9342 1351.96 777.0312 1352.5 830.366L1319.06 830.374 1319.03 814.5882C1309.44 825.8699 1300.71 831.4292 1285.59 832.5365 1250.08 835.1361 1227.76 809.717 1225.73 775.7529 1223.63 740.8025 1241.39 707.4315 1279.51 706.4573 1293.3 706.1052 1305.94 710.4952 1316.05 720.2006 1317.24 721.3528 1318.39 722.5501 1319.49 723.7884 1321.38 718.8632 1320.53 675.4828 1320.5 666.6347ZM1299.45 800.2948C1331.77 786.9636 1325.96 733.8468 1282.26 737.3937 1247.64 748.8754 1255.93 810.4642 1299.45 800.2948Z"></path>
<path transform="translate(0,0)" style="fill: rgb(212,212,212)" stroke-linecap="round" d="M1484.23 491.4058C1505.96 488.8072 1516.44 494.0385 1529.89 510.3004 1560.75 470.8779 1619.22 492.9362 1613.95 545.2757 1612.06 564.0092 1613.83 595.9389 1613.75 615.8977L1579.02 615.8777C1578.8 590.8947 1580.16 566.1338 1578.45 541.0467 1577.14 521.7661 1555.55 514.7204 1544.25 527.2254 1532.39 540.3546 1536.47 578.6358 1536.61 597.0412 1536.75 603.3087 1536.54 609.5772 1536.39 615.8447L1501.4 615.8737 1501.45 615.0245C1502.78 591.3138 1502.12 564.8955 1501.26 541.1788 1500.27 513.7112 1463.1 515.1665 1461.03 540.0375 1459 564.3463 1460.12 591.2438 1460.44 615.8177L1424.26 615.8677 1424.29 493.4973 1459.02 493.2243 1458.99 507.9688C1466.8 497.6683 1471.86 494.4926 1484.23 491.4058Z"></path>
<path transform="translate(0,0)" style="fill: rgb(212,212,212)" stroke-linecap="round" d="M1074.998 444.9596C1086.895 444.8396 1099.09 445.0266 1111.02 445.0706L1111.01 506.1693C1118.99 496.3929 1128.55 492.0499 1140.87 491.0296 1175.43 488.169 1190.17 512.1137 1190.17 543.8863 1190.17 567.8861 1190.16 591.9829 1190.09 615.8586L1155.22 615.8526 1155.41 568.8953C1155.55 557.6366 1157.38 536.8116 1150.24 528.0135 1139.39 514.9954 1113.79 520.5207 1112.1 538.558 1109.75 563.568 1110.98 590.5945 1111.03 615.8266L1075.008 615.9006C1074.359 559.4281 1074.992 501.5392 1074.998 444.9596Z"></path>
<path transform="translate(0,0)" style="fill: rgb(212,212,212)" stroke-linecap="round" d="M1671.58 491.5489C1674.08 491.3048 1676.59 491.1478 1679.1 491.0798 1694.49 490.7067 1710.25 493.5653 1721.73 504.619 1738.3 520.5828 1736.45 543.7924 1736.35 564.8204 1736.28 581.7895 1736.1 598.8056 1736.5 615.7837 1726.21 616.0497 1714.87 615.7997 1704.5 615.7877L1703.49 600.687C1688.76 622.2692 1662.54 622.0932 1641.73 609.6312 1627.4 596.421 1625.63 578.6948 1634.21 561.1886 1647.46 534.1541 1682.84 546.9472 1701.15 541.4058L1701.98 539.8224C1698.83 510.1903 1661.86 521.286 1644.73 530.7613 1641.17 522.5223 1637.45 514.3513 1633.58 506.2544 1644.71 497.6723 1657.72 493.1452 1671.58 491.5489ZM1688.63 589.7714C1694.82 586.7497 1711.33 571.5711 1700.57 564.0923 1699.47 563.3301 1681.45 564.1323 1678.52 564.3433 1653.28 571.394 1662.57 596.121 1688.63 589.7714Z"></path>
<path transform="translate(0,0)" style="fill: rgb(212,212,212)" stroke-linecap="round" d="M1252.55 491.4508C1305.39 487.988 1318.89 517.282 1316.87 564.7194 1291.29 565.3216 1264.18 564.7524 1238.37 564.9995 1248.56 597.6653 1274.97 595.7339 1299.23 578.0406L1304.57 584.7632 1314.9 597.7964C1281.27 633.4989 1214.01 621.8051 1205.39 570.1027 1199.26 533.3479 1213.18 498.8436 1252.55 491.4508ZM1239.07 542.24L1267.25 542.253 1285.43 542.319C1282.39 525.2689 1278.34 517.144 1259.39 518.3813 1244.71 521.7101 1242.17 528.7618 1239.07 542.24Z"></path>
<path transform="translate(0,0)" style="fill: rgb(212,212,212)" stroke-linecap="round" d="M1594.97 708.1548C1607.64 708.2278 1620.3 708.0898 1632.96 707.7427L1602.34 790.4456C1587.54 827.7775 1581.2 885.1983 1529.49 870.0827 1520.19 867.362 1529.47 849.1216 1531.59 843.2442 1538.88 843.9644 1547.97 844.7496 1551.58 836.5666 1552.26 834.8812 1553.04 832.6507 1552.49 830.8133 1548.21 816.4938 1541.53 802.0304 1535.74 788.2911 1524.38 761.6087 1513.16 734.8682 1502.07 708.0708L1539.82 708.1458C1547.53 726.7493 1563.27 772.1372 1568.52 790.8257 1574.19 766.8019 1586.85 732.2966 1594.97 708.1548Z"></path>
<path transform="translate(0,0)" style="fill: rgb(212,212,212)" stroke-linecap="round" d="M1099.03 708.1417L1133.81 708.2188 1133.65 753.7357C1133.57 766.8388 1131.06 786.0574 1140.8 796.0968 1148.11 803.6487 1163.33 803.0025 1170.34 795.3227 1179.62 785.1522 1177.18 766.5407 1177.06 753.6387 1176.89 738.486 1176.82 723.3314 1176.84 708.1777L1210.98 708.1547 1211.01 752.6904 1211 830.4051 1179.05 830.3561 1179.14 816.3487C1178.03 817.602 1176.9 818.8383 1175.76 820.0576 1159.61 837.1617 1126.37 836.3735 1111.68 820.8798 1092.34 800.4819 1098.94 735.9474 1099.03 708.1417Z"></path>
<path transform="translate(0,0)" style="fill: rgb(212,212,212)" stroke-linecap="round" d="M930.1 452.8675L1059.865 452.7395 1059.902 484.3651C1045.301 484.6091 1029.546 485.0332 1015.033 484.6101L1015.034 570.9678 1015.067 615.7886 979.016 615.8296 979.027 484.8972 930.238 484.7932 930.1 452.8675Z"></path>
<path transform="translate(0,0)" style="fill: rgb(212,212,212)" stroke-linecap="round" d="M1395.23 491.3638C1400.98 490.8957 1405.95 491.3288 1411.65 491.6849 1410.77 501.1302 1411.19 518.0182 1411.14 528.0066 1365.22 522.6593 1368.78 554.603 1369.15 589.2343 1369.25 598.0884 1369.35 606.9436 1369.81 615.7947L1333.29 615.8427C1331.87 611.9718 1332.77 504.675 1332.75 493.3243L1368.55 493.4273 1368.62 513.4941C1375.18 499.1627 1380.43 495.7919 1395.23 491.3638Z"></path>
<path transform="translate(0,0)" style="fill: rgb(212,212,212)" stroke-linecap="round" d="M1758.07 445.0306L1792.25 445.0916 1792.24 615.8236 1757.92 615.8656 1758.07 445.0306Z"></path>
<path transform="translate(0,0)" style="fill: rgb(212,212,212)" stroke-linecap="round" d="M1318.81 663.7808C1327.92 663.5217 1337.82 663.0916 1346.93 663.6137 1350.6 663.8228 1350.18 664.0398 1352 666.3324 1342.7 667.3086 1330.43 665.7393 1320.5 666.6345 1320.53 675.4826 1321.38 718.863 1319.49 723.7882 1318.18 714.2409 1318.92 675.9517 1318.81 663.7808Z"></path>
</svg>